<svg width="122" height="111" viewBox="0 0 122 111" fill="none" xmlns="http://www.w3.org/2000/svg">
<path d="M2.41703 105.628H27.25C28.3884 105.628 29.5065 105.327 30.4903 104.754C31.4741 104.182 32.2883 103.358 32.85 102.368L44.397 82.019L28.0351 53.189L0.321079 102.023C0.112942 102.39 0.00449588 102.805 0.00674825 103.227C0.00900062 103.649 0.121853 104.063 0.333897 104.427C0.54594 104.792 0.849862 105.095 1.21537 105.305C1.58087 105.516 1.99516 105.627 2.41703 105.628Z" fill="white"/>
<path d="M120.568 2.02296C120.29 1.73311 119.956 1.50281 119.586 1.34571C119.216 1.18861 118.819 1.10791 118.417 1.1089H93.3869C92.5574 1.10924 91.7435 1.33391 91.0312 1.75904C90.3189 2.18418 89.7349 2.794 89.3409 3.52393L61.302 55.5349C61.0019 56.1022 60.5473 56.5732 59.9909 56.8931C59.4648 57.1917 58.87 57.3481 58.265 57.3469C57.6584 57.3525 57.0614 57.1954 56.5362 56.8919C56.011 56.5883 55.5769 56.1495 55.279 55.6211L46.3039 40.0549V40.062C46.0433 39.6039 45.666 39.2228 45.2104 38.9578C44.7548 38.6927 44.237 38.5531 43.7099 38.553H23.2889C22.8869 38.5518 22.4888 38.6322 22.1187 38.7893C21.7487 38.9464 21.4143 39.177 21.1359 39.467C20.6884 39.9294 20.4027 40.5243 20.3216 41.1626C20.2405 41.8009 20.3684 42.4484 20.686 43.0081L57.842 108.886C58.1018 109.348 58.4798 109.733 58.9373 110C59.3949 110.268 59.9155 110.409 60.4455 110.409C60.9756 110.409 61.496 110.268 61.9536 110C62.4111 109.733 62.7891 109.348 63.0489 108.886L121.018 5.56104C121.332 5.00166 121.457 4.35601 121.374 3.71998C121.292 3.08394 121.007 2.49138 120.562 2.03004L120.568 2.02296Z" fill="#149AD7"/>
<path d="M43.3521 23.9671L56.1021 1.82594C56.3852 1.33453 56.7931 0.92682 57.2846 0.643816C57.7761 0.360811 58.3337 0.212545 58.9008 0.214372C59.4679 0.216199 60.0244 0.367904 60.5141 0.654069C61.0037 0.940235 61.4091 1.35078 61.689 1.84401L118.544 102.023C118.751 102.39 118.858 102.805 118.855 103.227C118.852 103.648 118.739 104.061 118.527 104.425C118.314 104.789 118.01 105.092 117.645 105.302C117.28 105.512 116.865 105.623 116.444 105.623H91.61C90.4717 105.624 89.3536 105.322 88.3698 104.749C87.386 104.177 86.5717 103.353 86.01 102.363L43.3371 27.156C43.0624 26.669 42.9193 26.1188 42.9219 25.5596C42.9245 25.0004 43.0728 24.4515 43.3521 23.9671Z" fill="white"/>
</svg>
