<svg width="301" height="65" viewBox="0 0 301 65" fill="none" xmlns="http://www.w3.org/2000/svg">
<path d="M86.1787 61.9539H100.772C101.44 61.9537 102.097 61.7763 102.675 61.4397C103.253 61.1031 103.731 60.6194 104.061 60.0378L110.846 48.0808L101.232 31.1387L84.9458 59.8389C84.8241 60.0545 84.761 60.2981 84.7627 60.5457C84.7645 60.7932 84.8309 61.0361 84.9556 61.25C85.0803 61.4639 85.2588 61.6414 85.4734 61.7649C85.688 61.8884 85.9312 61.9535 86.1787 61.9539Z" fill="white"/>
<path d="M13.019 60.0627V30.4348C13.0188 30.3094 12.9688 30.1892 12.8801 30.1006C12.7915 30.0119 12.6713 29.9619 12.5459 29.9617H2.22412C1.7226 29.9617 1.24159 29.7626 0.886963 29.408C0.532332 29.0533 0.333008 28.5723 0.333008 28.0708V20.5288C0.333273 20.0274 0.532633 19.5465 0.887207 19.1919C1.24178 18.8373 1.72268 18.638 2.22412 18.6377H38.416C38.9175 18.6377 39.3985 18.837 39.7532 19.1917C40.1078 19.5463 40.3069 20.0273 40.3069 20.5288V28.0708C40.307 28.3192 40.2583 28.5652 40.1633 28.7947C40.0683 29.0242 39.929 29.2326 39.7534 29.4082C39.5778 29.5838 39.3694 29.7231 39.1399 29.8181C38.9104 29.9131 38.6644 29.9618 38.416 29.9617H28.095C27.9695 29.9617 27.8492 30.0116 27.7605 30.1003C27.6718 30.189 27.6221 30.3094 27.6221 30.4348V60.0627C27.6221 60.5643 27.4227 61.0453 27.0681 61.3999C26.7135 61.7545 26.2325 61.9539 25.731 61.9539H14.9099C14.4084 61.9539 13.9274 61.7545 13.5728 61.3999C13.2181 61.0453 13.019 60.5643 13.019 60.0627Z" fill="white"/>
<path d="M120.28 64.8914C119.947 64.891 119.619 64.8021 119.331 64.6338C119.043 64.4655 118.804 64.2238 118.64 63.9333L96.8062 25.2192C96.6447 24.9327 96.561 24.6087 96.5635 24.2798C96.566 23.9509 96.6548 23.6283 96.8206 23.3442C96.9865 23.0602 97.2239 22.8245 97.5091 22.6606C97.7943 22.4968 98.1174 22.4104 98.4463 22.4102H110.446C110.779 22.4106 111.105 22.4988 111.392 22.6658C111.679 22.8328 111.918 23.0728 112.082 23.3613L117.353 32.5042C117.518 32.8009 117.761 33.0468 118.056 33.2144C118.351 33.382 118.686 33.465 119.025 33.4543C119.364 33.4516 119.696 33.3572 119.985 33.1812C120.275 33.0051 120.511 32.7539 120.669 32.4543L137.145 1.89136C137.388 1.44164 137.747 1.06577 138.186 0.803955C138.624 0.542138 139.125 0.404088 139.636 0.404297H154.344C154.673 0.404591 154.996 0.490717 155.281 0.654297C155.566 0.817877 155.803 1.05306 155.969 1.33667C156.135 1.62028 156.224 1.94236 156.228 2.271C156.231 2.59963 156.148 2.92346 155.987 3.21021L121.922 63.9272C121.759 64.2183 121.52 64.4606 121.232 64.6296C120.944 64.7986 120.616 64.8882 120.282 64.8892L120.28 64.8914Z" fill="#149AD7"/>
<path d="M245.056 39.6062C244.982 39.4377 244.861 39.2943 244.708 39.1936C244.554 39.0929 244.374 39.0394 244.19 39.0393H237.832C237.648 39.0396 237.469 39.0932 237.315 39.1939C237.161 39.2946 237.04 39.4379 236.966 39.6062L227.776 60.6302C227.713 60.774 227.687 60.9314 227.7 61.0879C227.713 61.2444 227.765 61.3952 227.851 61.5266C227.937 61.6581 228.054 61.7659 228.192 61.8406C228.331 61.9153 228.485 61.9544 228.642 61.9544H234.404C234.595 61.9541 234.782 61.896 234.939 61.7879C235.097 61.6797 235.218 61.5264 235.287 61.3482L236.472 58.2632C236.507 58.1747 236.568 58.0989 236.646 58.0454C236.725 57.9919 236.818 57.9631 236.913 57.9632H244.978C245.073 57.9629 245.167 57.9917 245.245 58.0452C245.324 58.0987 245.385 58.1746 245.42 58.2632L246.605 61.3482C246.674 61.5266 246.795 61.6802 246.953 61.7884C247.11 61.8965 247.297 61.9544 247.488 61.9544H253.381C253.538 61.9542 253.692 61.9149 253.83 61.8401C253.968 61.7654 254.086 61.6575 254.171 61.5261C254.257 61.3948 254.309 61.2441 254.323 61.0877C254.336 60.9313 254.31 60.774 254.247 60.6302L245.056 39.6062ZM238.856 52.0742L240.73 47.1973C240.747 47.1526 240.777 47.1141 240.817 47.0869C240.856 47.0598 240.903 47.0454 240.951 47.0454C240.998 47.0454 241.045 47.0598 241.085 47.0869C241.124 47.1141 241.154 47.1526 241.171 47.1973L243.046 52.0742C243.06 52.1101 243.065 52.1487 243.06 52.1868C243.056 52.2249 243.042 52.2614 243.02 52.293C242.999 52.3246 242.969 52.3506 242.935 52.3684C242.901 52.3862 242.863 52.3954 242.825 52.3953H239.076C239.037 52.3961 238.999 52.3874 238.964 52.3699C238.93 52.3524 238.9 52.3264 238.878 52.2947C238.856 52.263 238.842 52.2262 238.837 52.1878C238.832 52.1493 238.837 52.1104 238.851 52.0742H238.856ZM272.656 40.0872C270.901 39.3503 269.011 38.9933 267.108 39.0393H257.021C256.897 39.0393 256.774 39.0638 256.659 39.1114C256.545 39.1589 256.44 39.2286 256.353 39.3164C256.265 39.4043 256.195 39.5085 256.148 39.6233C256.1 39.7381 256.076 39.8612 256.076 39.9854V61.0083C256.076 61.1325 256.1 61.2554 256.148 61.3701C256.195 61.4849 256.265 61.5892 256.353 61.677C256.44 61.7649 256.545 61.8348 256.659 61.8823C256.774 61.9299 256.897 61.9544 257.021 61.9544H262.856C262.98 61.9544 263.103 61.9299 263.218 61.8823C263.333 61.8348 263.437 61.7649 263.525 61.677C263.613 61.5892 263.682 61.4849 263.729 61.3701C263.777 61.2554 263.801 61.1325 263.801 61.0083V56.3233H267.108C269.012 56.3697 270.904 56.0072 272.656 55.2603C274.124 54.6269 275.38 53.5858 276.274 52.2603C277.109 50.8743 277.55 49.287 277.55 47.6692C277.55 46.0514 277.109 44.4641 276.274 43.0781C275.383 41.7493 274.124 40.7098 272.65 40.0872H272.656ZM268.99 49.6453C268.32 50.1785 267.471 50.4363 266.617 50.3662H264.274C264.149 50.3662 264.028 50.3165 263.94 50.2278C263.851 50.1391 263.801 50.0188 263.801 49.8933V45.4702C263.801 45.3448 263.851 45.2245 263.94 45.1358C264.028 45.0471 264.149 44.9973 264.274 44.9973H266.617C267.471 44.9275 268.319 45.1849 268.99 45.7173C269.485 46.2518 269.759 46.953 269.759 47.6812C269.759 48.4093 269.485 49.1108 268.99 49.6453ZM299.063 43.0823C298.176 41.7511 296.918 40.7083 295.446 40.0823C293.691 39.3455 291.8 38.9883 289.897 39.0342H279.8C279.676 39.0342 279.553 39.0587 279.438 39.1062C279.324 39.1538 279.219 39.2234 279.131 39.3113C279.044 39.3992 278.974 39.5037 278.927 39.6184C278.879 39.7332 278.855 39.8561 278.855 39.9802V61.0032C278.855 61.1274 278.879 61.2505 278.927 61.3653C278.974 61.48 279.044 61.5843 279.131 61.6721C279.219 61.76 279.324 61.8297 279.438 61.8772C279.553 61.9248 279.676 61.9492 279.8 61.9492H285.635C285.759 61.9492 285.882 61.9248 285.997 61.8772C286.112 61.8297 286.216 61.76 286.304 61.6721C286.392 61.5843 286.461 61.48 286.508 61.3653C286.556 61.2505 286.58 61.1274 286.58 61.0032V56.3184H289.887C291.792 56.3647 293.684 56.002 295.436 55.2552C296.904 54.6218 298.16 53.5806 299.053 52.2552C299.888 50.8692 300.329 49.2822 300.329 47.6643C300.329 46.0465 299.888 44.4592 299.053 43.0733L299.063 43.0823ZM291.779 49.6453C291.108 50.1784 290.26 50.4362 289.406 50.3662H287.063C286.938 50.3662 286.817 50.3165 286.729 50.2278C286.64 50.1391 286.59 50.0188 286.59 49.8933V45.4702C286.59 45.3448 286.64 45.2245 286.729 45.1358C286.817 45.0471 286.938 44.9973 287.063 44.9973H289.406C290.26 44.9275 291.108 45.1849 291.779 45.7173C292.273 46.2518 292.548 46.953 292.548 47.6812C292.548 48.4093 292.273 49.1108 291.779 49.6453Z" fill="white"/>
<path d="M110.458 13.9671L117.951 0.956065C118.117 0.667337 118.357 0.427734 118.646 0.261485C118.935 0.0952359 119.262 0.00817136 119.595 0.00928795C119.929 0.0104045 120.256 0.0996519 120.543 0.267833C120.831 0.436014 121.069 0.677215 121.234 0.967052L154.643 59.8359C154.765 60.0516 154.829 60.2957 154.828 60.5437C154.826 60.7917 154.76 61.0352 154.635 61.2495C154.51 61.4639 154.331 61.6415 154.116 61.7651C153.901 61.8888 153.658 61.9541 153.41 61.9541H138.817C138.148 61.9541 137.491 61.7768 136.914 61.4402C136.336 61.1036 135.858 60.6198 135.528 60.0381L110.452 15.844C110.289 15.5577 110.204 15.234 110.205 14.9048C110.206 14.5756 110.293 14.2523 110.458 13.9671Z" fill="white"/>
<path d="M195.5 19.793L183.267 40.3459C183.184 40.4859 183.066 40.6019 182.925 40.6829C182.784 40.7638 182.624 40.807 182.461 40.8081C182.298 40.8092 182.138 40.7682 181.996 40.6892C181.854 40.6102 181.734 40.4957 181.649 40.3569L169.034 19.7671C168.823 19.4222 168.526 19.1371 168.173 18.9395C167.82 18.7418 167.423 18.638 167.018 18.6379H158.228C157.727 18.6382 157.246 18.8376 156.891 19.1921C156.537 19.5467 156.337 20.0276 156.337 20.5291V60.063C156.337 60.5644 156.537 61.0453 156.891 61.3999C157.246 61.7545 157.727 61.9538 158.228 61.9541H167.75C167.998 61.9541 168.244 61.9051 168.474 61.8101C168.703 61.715 168.912 61.5757 169.087 61.4001C169.263 61.2246 169.402 61.016 169.497 60.7866C169.592 60.5572 169.641 60.3113 169.641 60.063V44.54C169.641 44.4372 169.675 44.3372 169.737 44.2551C169.799 44.1731 169.886 44.1133 169.985 44.0852C170.084 44.0571 170.189 44.062 170.285 44.0991C170.381 44.1362 170.462 44.2036 170.516 44.291L177.37 55.3501C177.883 56.1775 178.598 56.8602 179.449 57.3337C180.299 57.8073 181.257 58.0557 182.23 58.0559C183.222 58.0556 184.196 57.7973 185.058 57.3064C185.919 56.8155 186.638 56.109 187.144 55.2561L194.037 43.656C194.09 43.5674 194.17 43.4986 194.266 43.46C194.362 43.4214 194.468 43.4151 194.567 43.4421C194.667 43.4692 194.755 43.5281 194.818 43.6099C194.881 43.6916 194.915 43.7918 194.916 43.895L195.002 60.0691C195.005 60.5688 195.205 61.047 195.56 61.3994C195.914 61.7518 196.393 61.9497 196.893 61.95H206.42C206.669 61.95 206.916 61.9008 207.146 61.8052C207.376 61.7096 207.585 61.5696 207.76 61.3931C207.936 61.2165 208.075 61.0068 208.17 60.7764C208.264 60.5459 208.312 60.2991 208.311 60.05L208.198 20.5161C208.196 20.0155 207.997 19.5359 207.642 19.1824C207.288 18.8289 206.807 18.6301 206.307 18.6299H197.532C197.121 18.6307 196.718 18.7385 196.362 18.9424C196.006 19.1463 195.709 19.4394 195.5 19.793ZM211.359 20.5291V60.063C211.359 60.5644 211.559 61.0453 211.913 61.3999C212.268 61.7545 212.749 61.9538 213.25 61.9541H224.072C224.573 61.9538 225.054 61.7545 225.409 61.3999C225.764 61.0453 225.963 60.5644 225.963 60.063V20.5291C225.963 20.0276 225.764 19.5467 225.409 19.1921C225.054 18.8376 224.573 18.6382 224.072 18.6379H213.25C212.749 18.6393 212.269 18.8391 211.916 19.1936C211.562 19.5481 211.363 20.0283 211.363 20.5291H211.359Z" fill="white"/>
<path d="M75.3059 48.6309C77.6255 47.4831 79.6067 45.7516 81.0549 43.6067C82.709 41.0374 83.5503 38.0294 83.469 34.9749C83.469 29.9415 81.7357 25.9604 78.269 23.0317C74.8024 20.1031 69.7486 18.6384 63.1079 18.6377H44.7639C44.2626 18.638 43.7819 18.8373 43.4275 19.1919C43.0731 19.5465 42.874 20.0275 42.874 20.5288V60.0627C42.874 60.5641 43.0731 61.0451 43.4275 61.3997C43.7819 61.7543 44.2626 61.9536 44.7639 61.9539H55.5859C56.0874 61.9536 56.5683 61.7542 56.9229 61.3997C57.2774 61.0451 57.4768 60.5642 57.4771 60.0627V31.7908C57.4773 31.2893 57.6767 30.8084 58.0312 30.4539C58.3858 30.0993 58.8665 29.8999 59.3679 29.8997H62.7991C64.413 29.7682 66.0165 30.2551 67.2849 31.2617C68.2196 32.2721 68.7388 33.598 68.7388 34.9744C68.7388 36.3508 68.2196 37.6764 67.2849 38.6868C66.0167 39.6937 64.4131 40.1807 62.7991 40.0488C62.6602 40.0487 62.5226 40.0758 62.3943 40.1289C62.2659 40.182 62.1493 40.2597 62.051 40.3579C61.9528 40.4561 61.8747 40.5726 61.8215 40.7009C61.7684 40.8292 61.741 40.9668 61.741 41.1057V50.9058C61.7411 51.2824 61.8536 51.6503 62.064 51.9626L67.957 60.7007C68.217 61.0854 68.5672 61.4007 68.9773 61.6187C69.3873 61.8366 69.8447 61.9505 70.3091 61.9507H81.709C81.967 61.9507 82.2202 61.8805 82.4412 61.7473C82.6622 61.6141 82.8427 61.423 82.9631 61.1948C83.0836 60.9666 83.1397 60.7098 83.125 60.4521C83.1103 60.1945 83.0255 59.9457 82.8799 59.7327L75.3059 48.6309Z" fill="white"/>
</svg>
